<?xml version="1.0" encoding="UTF-8" ?>
<!DOCTYPE svg PUBLIC "-//W3C//DTD SVG 1.1//EN" "http://www.w3.org/Graphics/SVG/1.1/DTD/svg11.dtd">
<svg width="300pt" height="60pt" viewBox="0 0 300 60" version="1.1" xmlns="http://www.w3.org/2000/svg">
<path fill="#ffffff" d=" M 0.00 0.00 L 300.00 0.00 L 300.00 60.00 L 0.00 60.00 L 0.00 44.68 C 0.07 44.53 0.22 44.23 0.30 44.07 C 1.81 48.29 4.75 52.17 9.14 53.61 C 15.75 55.90 23.03 55.66 29.84 54.49 C 34.86 53.50 40.61 49.80 40.14 44.03 C 40.31 40.56 37.75 37.71 34.82 36.25 C 28.10 32.93 20.26 33.44 13.40 30.64 C 11.37 30.02 11.15 26.90 13.29 26.31 C 18.62 24.03 26.69 23.93 29.50 30.01 C 32.03 29.95 34.56 29.89 37.09 29.83 C 37.09 31.50 37.09 33.16 37.09 34.82 C 38.53 34.81 39.96 34.79 41.40 34.78 C 41.44 39.52 41.31 44.26 41.53 49.00 C 41.60 51.09 42.49 53.38 44.59 54.18 C 48.81 56.02 53.55 55.12 57.95 54.56 C 57.77 53.23 57.59 51.91 57.40 50.58 C 66.66 57.43 81.92 57.35 89.27 47.70 C 91.56 51.17 95.05 53.84 99.18 54.66 C 106.60 56.10 115.56 55.58 120.62 49.19 C 120.56 51.06 120.51 52.93 120.47 54.81 C 123.60 54.78 126.74 54.77 129.88 54.78 C 129.91 52.12 129.69 49.43 130.04 46.78 C 131.24 45.45 132.74 44.41 134.11 43.25 C 137.12 47.10 140.14 50.95 143.13 54.81 C 148.84 54.78 154.56 54.76 160.27 54.83 C 160.32 50.25 160.06 45.65 160.50 41.08 C 160.71 38.97 161.37 36.55 163.41 35.49 C 165.80 34.18 168.58 35.29 171.07 35.66 C 172.01 33.72 172.94 31.79 173.87 29.84 C 170.96 29.22 167.93 28.31 164.96 29.11 C 162.78 29.73 161.19 31.45 159.45 32.79 C 159.49 31.93 159.58 30.21 159.62 29.35 C 153.33 29.60 146.96 28.96 140.72 29.65 C 136.85 32.21 133.50 35.48 129.84 38.33 C 129.91 32.15 129.85 25.97 129.90 19.79 C 126.76 19.80 123.63 19.80 120.49 19.78 C 120.52 24.85 120.44 29.92 120.61 34.98 C 115.67 28.41 106.52 27.94 99.11 29.50 C 95.03 30.31 91.59 32.94 89.30 36.35 C 81.84 26.65 66.19 26.54 57.08 33.93 C 57.15 32.40 57.22 30.88 57.28 29.35 C 55.12 29.37 52.96 29.40 50.80 29.42 C 50.80 26.43 50.82 23.43 50.84 20.44 C 47.70 21.72 44.58 23.04 41.45 24.35 C 41.38 26.33 41.29 28.30 41.15 30.28 C 38.04 28.15 37.46 23.79 34.00 22.03 C 28.86 19.12 22.68 18.97 16.93 19.25 C 11.94 19.68 6.11 20.83 3.27 25.43 C 0.99 28.97 2.94 33.68 6.35 35.68 C 12.97 39.81 21.21 39.09 28.32 41.82 C 30.67 42.49 31.04 45.68 29.15 47.08 C 25.58 49.93 20.48 49.65 16.24 48.84 C 12.99 48.27 11.17 45.36 9.77 42.67 C 6.51 42.91 3.26 43.19 0.00 43.42 L 0.00 0.00 Z" />
<path fill="#000000" d=" M 196.96 4.72 C 198.94 3.97 200.31 2.34 202.05 1.22 C 205.11 0.76 208.74 0.90 210.49 3.88 C 211.50 4.25 212.51 4.62 213.52 4.98 C 216.36 3.12 219.98 4.57 221.56 7.36 C 222.01 9.10 222.25 10.90 223.12 12.51 C 225.47 12.76 227.99 13.92 228.31 16.56 C 228.96 18.33 227.35 19.60 226.29 20.71 C 226.33 21.59 226.38 22.47 226.44 23.35 C 226.94 23.71 227.94 24.42 228.44 24.78 C 231.71 25.25 234.89 26.22 237.89 27.59 C 236.29 29.35 234.65 31.08 233.05 32.84 C 228.76 30.08 223.12 29.52 218.48 31.71 C 210.58 35.30 210.64 48.92 218.83 52.14 C 223.90 54.08 230.60 53.72 234.41 49.44 C 237.46 45.60 237.10 40.21 235.58 35.81 C 238.02 34.49 240.44 33.13 242.88 31.81 C 245.73 36.34 246.00 41.87 245.01 46.99 C 243.28 53.13 237.39 57.09 231.38 58.28 C 223.46 59.73 214.35 59.10 208.16 53.38 C 200.01 60.14 187.82 60.28 178.53 55.87 C 180.11 54.13 181.72 52.42 183.31 50.68 C 187.57 53.31 193.10 53.98 197.71 51.85 C 205.76 48.43 205.82 34.76 197.70 31.40 C 192.79 29.42 186.48 29.74 182.49 33.49 C 178.90 37.26 179.26 43.09 180.84 47.68 C 178.40 48.98 175.99 50.33 173.57 51.64 C 169.23 44.98 169.66 35.18 175.73 29.70 C 178.76 26.62 183.36 26.26 186.65 23.60 C 186.67 22.65 186.69 21.69 186.71 20.73 C 183.21 18.78 184.04 13.41 187.96 12.58 C 188.29 12.17 188.96 11.33 189.29 10.92 C 186.42 6.50 193.20 2.55 196.96 4.72 Z" />
<path fill="#ffffff" d=" M 202.45 1.99 C 204.14 2.07 205.83 2.16 207.52 2.25 C 207.46 2.98 207.33 4.44 207.26 5.17 C 205.65 5.15 204.04 5.11 202.43 5.03 C 202.44 4.27 202.45 2.75 202.45 1.99 Z" />
<path fill="#000000" d=" M 49.29 4.08 C 58.98 4.13 68.67 4.17 78.37 4.06 C 78.38 6.68 78.36 9.30 78.28 11.91 C 82.61 8.89 91.13 8.30 92.64 14.66 C 95.82 9.16 103.58 8.56 108.78 11.26 C 111.76 12.71 112.52 16.15 112.87 19.14 C 107.78 19.15 102.68 19.06 97.59 19.26 C 98.62 22.30 102.50 24.45 105.28 22.17 C 107.27 20.14 110.22 21.42 112.68 21.47 C 108.22 28.04 96.69 27.96 92.41 21.23 C 92.48 22.78 92.55 24.33 92.60 25.87 C 90.65 25.87 88.70 25.87 86.74 25.89 C 86.64 22.06 87.07 18.18 86.43 14.40 C 84.50 11.74 79.08 12.68 78.57 16.09 C 78.15 19.34 78.43 22.63 78.35 25.90 C 76.43 25.86 74.52 25.87 72.60 25.87 C 72.61 19.85 72.58 13.83 72.63 7.81 C 69.86 7.83 67.10 7.82 64.34 7.81 C 64.38 13.84 64.37 19.87 64.36 25.90 C 62.32 25.86 60.28 25.87 58.25 25.86 C 58.25 19.84 58.24 13.82 58.26 7.80 C 55.27 7.82 52.27 7.84 49.28 7.86 C 49.28 6.60 49.28 5.34 49.29 4.08 Z" />
<path fill="#ffffff" d=" M 196.26 8.21 C 197.26 6.84 198.36 4.30 200.52 5.26 C 203.53 6.55 206.90 6.58 209.86 5.12 C 210.87 5.49 211.89 5.86 212.91 6.22 C 213.91 7.76 214.87 9.58 216.69 10.29 C 218.54 11.03 220.73 11.09 222.04 12.80 C 220.01 15.78 221.74 19.27 224.73 20.75 C 224.76 21.60 224.79 22.45 224.82 23.30 C 224.25 23.66 223.12 24.38 222.55 24.73 C 217.36 25.00 212.22 26.66 208.26 30.11 C 205.82 28.16 203.19 26.32 200.10 25.57 C 196.22 24.27 191.84 25.40 188.21 23.26 C 188.25 22.64 188.33 21.42 188.36 20.81 C 189.27 19.97 190.78 19.53 191.11 18.21 C 192.12 16.04 190.43 14.05 189.89 12.02 C 191.93 10.60 194.85 10.47 196.26 8.21 Z" />
<path fill="#ffffff" d=" M 189.33 8.53 C 190.40 7.29 191.60 6.17 192.87 5.15 C 193.71 5.60 195.39 6.51 196.23 6.97 C 194.96 8.00 193.68 9.02 192.38 10.02 C 192.26 9.57 192.00 8.66 191.87 8.21 C 191.24 8.29 189.96 8.45 189.33 8.53 Z" />
<path fill="#ffffff" d=" M 214.92 7.69 C 215.54 6.72 216.16 5.75 216.78 4.78 C 218.22 5.84 219.64 6.93 221.01 8.07 C 220.12 8.73 219.24 9.40 218.35 10.06 C 217.20 9.27 216.05 8.48 214.92 7.69 Z" />
<path fill="#ffffff" d=" M 97.64 16.50 C 98.61 14.87 99.77 12.89 101.96 12.94 C 104.54 12.43 106.33 14.48 107.40 16.51 C 104.15 16.67 100.89 16.67 97.64 16.50 Z" />
<path fill="#ffffff" d=" M 185.91 14.78 C 187.34 14.77 188.77 14.77 190.21 14.77 C 189.97 16.32 189.70 17.88 189.33 19.42 C 188.82 18.90 187.80 17.87 187.29 17.35 C 186.96 17.82 186.30 18.76 185.97 19.23 C 185.93 17.74 185.91 16.26 185.91 14.78 Z" />
<path fill="#ffffff" d=" M 222.15 14.63 L 224.51 15.44 L 225.73 13.83 C 226.37 15.28 226.93 16.76 227.42 18.27 C 226.43 18.37 224.45 18.57 223.46 18.67 C 223.00 17.33 222.56 15.99 222.15 14.63 Z" />
<path fill="#000000" d=" M 3.27 25.43 C 6.11 20.83 11.94 19.68 16.93 19.25 C 22.68 18.97 28.86 19.12 34.00 22.03 C 37.46 23.79 38.04 28.15 41.15 30.28 C 41.29 28.30 41.38 26.33 41.45 24.35 C 44.58 23.04 47.70 21.72 50.84 20.44 C 50.82 23.43 50.80 26.43 50.80 29.42 C 52.96 29.40 55.12 29.37 57.28 29.35 C 57.22 30.88 57.15 32.40 57.08 33.93 C 66.19 26.54 81.84 26.65 89.30 36.35 C 91.59 32.94 95.03 30.31 99.11 29.50 C 106.52 27.94 115.67 28.41 120.61 34.98 C 120.44 29.92 120.52 24.85 120.49 19.78 C 123.63 19.80 126.76 19.80 129.90 19.79 C 129.85 25.97 129.91 32.15 129.84 38.33 C 133.50 35.48 136.85 32.21 140.72 29.65 C 146.96 28.96 153.33 29.60 159.62 29.35 C 159.58 30.21 159.49 31.93 159.45 32.79 C 161.19 31.45 162.78 29.73 164.96 29.11 C 167.93 28.31 170.96 29.22 173.87 29.84 C 172.94 31.79 172.01 33.72 171.07 35.66 C 168.58 35.29 165.80 34.18 163.41 35.49 C 161.37 36.55 160.71 38.97 160.50 41.08 C 160.06 45.65 160.32 50.25 160.27 54.83 C 154.56 54.76 148.84 54.78 143.13 54.81 C 140.14 50.95 137.12 47.10 134.11 43.25 C 132.74 44.41 131.24 45.45 130.04 46.78 C 129.69 49.43 129.91 52.12 129.88 54.78 C 126.74 54.77 123.60 54.78 120.47 54.81 C 120.51 52.93 120.56 51.06 120.62 49.19 C 115.56 55.58 106.60 56.10 99.18 54.66 C 95.05 53.84 91.56 51.17 89.27 47.70 C 81.92 57.35 66.66 57.43 57.40 50.58 C 57.59 51.91 57.77 53.23 57.95 54.56 C 53.55 55.12 48.81 56.02 44.59 54.18 C 42.49 53.38 41.60 51.09 41.53 49.00 C 41.31 44.26 41.44 39.52 41.40 34.78 C 39.96 34.79 38.53 34.81 37.09 34.82 C 37.09 33.16 37.09 31.50 37.09 29.83 C 34.56 29.89 32.03 29.95 29.50 30.01 C 26.69 23.93 18.62 24.03 13.29 26.31 C 11.15 26.90 11.37 30.02 13.40 30.64 C 20.26 33.44 28.10 32.93 34.82 36.25 C 37.75 37.71 40.31 40.56 40.14 44.03 C 40.61 49.80 34.86 53.50 29.84 54.49 C 23.03 55.66 15.75 55.90 9.14 53.61 C 4.75 52.17 1.81 48.29 0.30 44.07 C 0.22 44.23 0.07 44.53 0.00 44.68 L 0.00 43.42 C 3.26 43.19 6.51 42.91 9.77 42.67 C 11.17 45.36 12.99 48.27 16.24 48.84 C 20.48 49.65 25.58 49.93 29.15 47.08 C 31.04 45.68 30.67 42.49 28.32 41.82 C 21.21 39.09 12.97 39.81 6.35 35.68 C 2.94 33.68 0.99 28.97 3.27 25.43 Z" />
<path fill="#000000" d=" M 245.91 29.38 C 248.82 29.39 251.74 29.38 254.65 29.35 C 254.63 30.18 254.58 31.84 254.55 32.67 C 260.49 27.95 270.03 27.01 275.70 32.64 C 280.44 28.77 287.20 27.68 292.90 29.91 C 295.43 30.84 297.65 33.06 297.84 35.86 C 298.29 42.15 297.90 48.47 298.05 54.77 C 294.91 54.77 291.79 54.77 288.66 54.82 C 288.36 48.59 289.33 42.21 288.07 36.07 C 285.40 31.94 277.55 34.03 276.99 38.92 C 276.38 44.19 276.85 49.51 276.70 54.81 C 273.57 54.77 270.43 54.77 267.30 54.81 C 267.09 48.57 267.74 42.28 266.90 36.09 C 264.17 31.88 255.92 33.96 255.56 39.06 C 254.98 44.29 255.43 49.57 255.30 54.82 C 252.16 54.77 249.04 54.77 245.91 54.78 C 245.88 50.84 245.98 46.89 246.46 42.97 C 246.36 38.44 245.74 33.93 245.91 29.38 Z" />
<path fill="#ffffff" d=" M 140.23 38.69 C 143.76 35.97 147.27 33.21 150.87 30.58 C 150.86 37.66 150.86 44.74 150.88 51.83 C 147.31 47.47 143.85 43.01 140.23 38.69 Z" />
<path fill="#ffffff" d=" M 69.54 34.64 C 74.46 33.03 81.39 36.15 80.96 41.98 C 81.45 49.11 71.90 52.00 66.81 48.30 C 61.50 45.02 63.22 35.56 69.54 34.64 Z" />
<path fill="#ffffff" d=" M 99.43 36.45 C 102.95 32.81 110.16 33.19 112.45 38.06 C 115.13 37.68 117.81 37.32 120.49 36.93 C 120.51 39.99 120.51 43.05 120.49 46.10 C 117.95 45.96 114.92 44.63 112.66 45.37 C 110.70 50.95 102.34 51.37 99.12 46.82 C 97.56 43.66 97.37 39.43 99.43 36.45 Z" />
<path fill="#ffffff" d=" M 50.80 34.80 C 52.70 34.79 54.59 34.77 56.49 34.74 C 53.20 39.16 53.56 45.05 56.34 49.63 C 54.52 49.71 52.70 49.68 50.93 49.24 C 50.74 44.43 50.83 39.62 50.80 34.80 Z" />
</svg>
